<svg width="71" height="71" viewBox="0 0 71 71" fill="none" xmlns="http://www.w3.org/2000/svg">
<path d="M28.5303 10.08C28.9454 9.6652 29.4383 9.33633 29.9807 9.11226C30.5231 8.88819 31.1044 8.77332 31.6913 8.77423C32.2782 8.77513 32.8591 8.8918 33.4008 9.11754C33.9425 9.34329 34.4344 9.67367 34.8483 10.0898L51.9238 27.2563L50.4775 23.6975C48.6575 19.2125 53.747 15.085 57.7575 17.7858C58.375 18.1985 58.8853 18.7445 59.2558 19.3783L66.9908 32.6253C69.5939 37.0842 70.6471 42.2798 69.9856 47.4004C69.3241 52.5211 66.9853 57.2785 63.3345 60.9295L60.5915 63.6725C56.2093 68.0546 50.2658 70.5164 44.0685 70.5164C37.8712 70.5164 31.9277 68.0546 27.5455 63.6725L11.185 47.3088C10.356 46.469 9.89279 45.3355 9.89644 44.1555C9.90009 42.9755 10.3703 41.8448 11.2045 41.0102C12.0386 40.1756 13.1691 39.7048 14.3491 39.7006C15.5291 39.6963 16.6628 40.159 17.503 40.9875L22.716 46.2005L24.4418 44.4748L12.4493 32.4823C11.6203 31.6425 11.157 30.509 11.1607 29.329C11.1643 28.149 11.6345 27.0183 12.4687 26.1837C13.3029 25.3491 14.4333 24.8783 15.6133 24.8741C16.7933 24.8698 17.9271 25.3325 18.7673 26.161L30.7598 38.1535L32.4823 36.431L16.0503 19.9958C15.6128 19.5863 15.2622 19.0931 15.0192 18.5454C14.7763 17.9977 14.6459 17.4067 14.636 16.8077C14.626 16.2086 14.7366 15.6136 14.9612 15.0581C15.1858 14.5027 15.5198 13.998 15.9434 13.5742C16.367 13.1504 16.8714 12.8162 17.4268 12.5913C17.9821 12.3664 18.5771 12.2555 19.1761 12.2651C19.7752 12.2748 20.3663 12.4048 20.9141 12.6475C21.4619 12.8902 21.9553 13.2406 22.365 13.6778L38.8003 30.113L40.5228 28.3905L28.527 16.3915C28.1125 15.9772 27.7837 15.4852 27.5594 14.9437C27.335 14.4022 27.2196 13.8219 27.2196 13.2358C27.2196 12.6497 27.335 12.0693 27.5594 11.5279C27.7837 10.9864 28.1125 10.4944 28.527 10.08M53.435 0.0245361L56.1098 1.86729C60.0306 4.57457 63.4267 7.97185 66.1328 11.8935L67.9755 14.5683L62.626 18.257L60.78 15.579C58.5225 12.3098 55.6902 9.47755 52.421 7.22004L49.743 5.37404L53.435 0.0245361ZM5.37076 49.743L7.21676 52.421C9.47523 55.6906 12.3086 58.5228 15.579 60.78L18.2538 62.626L14.565 67.9755L11.8903 66.1328C7.96857 63.4268 4.57129 60.0306 1.86401 56.1098L0.0212555 53.4318L5.37076 49.743Z" fill="#FFBE42"/>
</svg>
